# xmcd
#
# Track frame offsets:
#	150
#	14967
#	35893
#	50824
#	76043
#	87018
#	108551
#	117952
#	134008
#	151301
#	164489
#	177235
#	190455
#
# Disc length: 2762 seconds
#
# Revision: 0
# Processed by: cddbd v1.5.2PL0 Copyright (c) Steve Scherf et al.
# Submitted via: EasyCDDAExtractor 16.0.6.1
#
DISCID=b80ac80d
DTITLE=Συλλογικός δίσκος - Τραγούδια από το αντάρτικο λημέρι του-Π. Τζαβέλλας
DYEAR=1975
DGENRE=Αντιστασιακή
TTITLE0=Χορωδία - Της νειώτης [Φ. Ανωγειαννάκη-Σ. Μαυροειδή-Παπαδάκη]
TTITLE1=Χορωδία - Απόψε θα πλαγιάσουμε [κλέφτικο]
TTITLE2=Μαντζόπουλος Κώστας - Μπεζεντάκος [λαϊκό της πόλης]
TTITLE3=Μαντζόπουλος Κώστας - Σαμαρίνα [μοιρολόϊ της Ηπείρου]
TTITLE4=Παπαδοπούλου Ν.-χορωδία - Άϊντε παιδιά [Π. Τζαβέλλα-Θ. Πανουτσόπουλου]
TTITLE5=Αλεξίου Χάρις-χορωδία - Μάη μ', Μάη μ' [Π. Τζαβέλλα]
TTITLE6=Χορωδία - Τραγούδι για την αγροτιά [λαϊκό τραγούδι]
TTITLE7=Τζαβέλλας Πάνος - Ο κυρ Παντελής [Π. Τζαβέλλα]
TTITLE8=Τζαβέλλας Πάνος - Ο νικημένος (Ξυπνήστε) [μουσ. στ. Π. Τζαβέλλα]
TTITLE9=Χορωδία - Αχ πατρίδα μας γλυκειά [δημοτικό Θεσσαλίας]
TTITLE10=Μαντζόπουλος Κώστας - Καλαματιανή [δημοτικό Μωριά]
TTITLE11=Παπαδοπούλου Ν.-χορωδία - Είσαι παιδί στα δέκα εννιά σου [Π. Τζαβέλλα
TTITLE11=]
TTITLE12=Μαντζόπουλος Κώστας - Ο φρούραρχος της Καστοριάς [δημοτικό Μακεδονίας
TTITLE12=]
EXTD=
EXTT0=
EXTT1=
EXTT2=
EXTT3=
EXTT4=
EXTT5=
EXTT6=
EXTT7=
EXTT8=
EXTT9=
EXTT10=
EXTT11=
EXTT12=
PLAYORDER=
